<svg width="326" height="10" viewBox="0 0 326 10" fill="none" xmlns="http://www.w3.org/2000/svg">
<path fill-rule="evenodd" clip-rule="evenodd" d="M326 0H0V3.33549C0.0805632 3.33319 0.162192 3.33203 0.244915 3.33203C3.37128 3.33203 4.93446 4.99804 6.49764 6.66404C8.06082 8.33005 9.62401 9.99606 12.7504 9.99606C15.8767 9.99606 17.4399 8.33006 19.0031 6.66405C20.5663 4.99804 22.1295 3.33203 25.2558 3.33203C28.3822 3.33203 29.9454 4.99804 31.5086 6.66404C33.0717 8.33005 34.6349 9.99606 37.7613 9.99606C40.8876 9.99606 42.4508 8.33006 44.014 6.66405C45.5772 4.99804 47.1404 3.33203 50.2667 3.33203C53.3931 3.33203 55.1003 4.99804 56.8074 6.66404C58.5146 8.33005 60.2217 9.99606 63.3481 9.99606C66.4745 9.99606 68.0377 8.33006 69.6008 6.66405C71.164 4.99804 72.7272 3.33203 75.8536 3.33203C78.9799 3.33203 80.5431 4.99804 82.1063 6.66404C83.6695 8.33005 85.2327 9.99606 88.359 9.99606C91.4854 9.99606 93.0486 8.33006 94.6117 6.66405C96.1749 4.99804 97.7381 3.33203 100.864 3.33203C103.991 3.33203 105.554 4.99804 107.117 6.66404C108.68 8.33005 110.244 9.99606 113.37 9.99606C116.496 9.99606 118.059 8.33006 119.623 6.66405C121.186 4.99804 122.749 3.33203 125.875 3.33203C129.002 3.33203 130.565 4.99804 132.128 6.66405C133.691 8.33006 135.254 9.99606 138.381 9.99606C141.507 9.99606 143.07 8.33005 144.634 6.66404C146.197 4.99803 147.76 3.33203 150.886 3.33203C154.013 3.33203 155.576 4.99804 157.139 6.66405C158.702 8.33006 160.265 9.99606 163.392 9.99606C166.518 9.99606 168.081 8.33006 169.644 6.66405C171.208 4.99804 172.771 3.33203 175.897 3.33203C179.024 3.33203 180.587 4.99803 182.15 6.66404C183.713 8.33005 185.276 9.99606 188.403 9.99606C191.529 9.99606 193.092 8.33006 194.655 6.66405C196.219 4.99804 197.782 3.33203 200.908 3.33203C204.034 3.33203 205.598 4.99804 207.161 6.66404C208.724 8.33005 210.287 9.99606 213.414 9.99606C216.54 9.99606 218.103 8.33006 219.666 6.66405C221.229 4.99804 222.793 3.33203 225.919 3.33203C229.045 3.33203 230.609 4.99803 232.172 6.66404C233.735 8.33005 235.298 9.99606 238.424 9.99606C241.551 9.99606 243.114 8.33006 244.677 6.66405C246.24 4.99804 247.804 3.33203 250.93 3.33203C254.056 3.33203 255.619 4.99803 257.183 6.66404C258.746 8.33005 260.309 9.99606 263.435 9.99606C266.562 9.99606 268.125 8.33006 269.688 6.66405C271.251 4.99804 272.814 3.33203 275.941 3.33203C279.067 3.33203 280.63 4.99803 282.194 6.66404C283.757 8.33005 285.32 9.99606 288.446 9.99606C291.573 9.99606 293.136 8.33006 294.699 6.66405C296.262 4.99804 297.825 3.33203 300.952 3.33203C304.078 3.33203 305.641 4.99803 307.204 6.66404C308.768 8.33005 310.331 9.99606 313.457 9.99606C316.584 9.99606 318.147 8.33006 319.71 6.66405C321.273 4.99804 322.836 3.33203 325.963 3.33203C325.975 3.33203 325.988 3.33205 326 3.33211V0Z" fill="#f5f1e5"/>
</svg>
