<?xml version="1.0" encoding="UTF-8"?>
<!DOCTYPE svg PUBLIC "-//W3C//DTD SVG 1.1//EN" "http://www.w3.org/Graphics/SVG/1.1/DTD/svg11.dtd">
<!-- Creator: CorelDRAW -->
<svg xmlns="http://www.w3.org/2000/svg" xml:space="preserve" width="1024px" height="1024px" version="1.1" style="shape-rendering:geometricPrecision; text-rendering:geometricPrecision; image-rendering:optimizeQuality; fill-rule:evenodd; clip-rule:evenodd"
viewBox="0 0 1024 1024"
 xmlns:xlink="http://www.w3.org/1999/xlink"
 xmlns:xodm="http://www.corel.com/coreldraw/odm/2003">
 <defs>
  <style type="text/css">
   <![CDATA[
    .fil0 {fill:none}
    .fil2 {fill:black}
    .fil7 {fill:#33CC66}
    .fil4 {fill:#666666}
    .fil5 {fill:#FF5356}
    .fil6 {fill:#FFD000}
    .fil1 {fill:black;fill-rule:nonzero}
    .fil3 {fill:#FF5356;fill-rule:nonzero}
   ]]>
  </style>
 </defs>
 <g id="Camada_x0020_1">
  <metadata id="CorelCorpID_0Corel-Layer"/>
  <rect class="fil0" width="1024" height="1024"/>
  <path class="fil1" d="M497.06 696.04l19.18 -49.95 33.56 -88.1 -30.36 0 -20.98 62.93 -20.98 -62.93 -30.16 0 36.01 94.47 -17.43 43.58 31.16 0zm108.08 -70.72c-16.18,0 -20.57,-11.79 -20.57,-22.98 0,-10.99 4.79,-22.77 20.57,-22.77 15.58,0 20.38,11.78 20.38,22.77 0,11.19 -4.4,22.98 -20.38,22.98zm0 -69.13c-27.57,0 -50.34,18.38 -50.34,45.95 0,28.17 22.17,45.75 50.34,45.75 27.97,0 50.15,-17.58 50.15,-45.75 0,-27.57 -22.78,-45.95 -50.15,-45.95zm67.13 51.94c0,23.78 9.59,39.96 33.16,39.96 11.59,0 20.98,-5.19 26.97,-12.79l0 10.79 29.97 0 0 -88.1 -29.97 0 0 44.15c0,11.79 -7.39,21.98 -16.78,21.98 -9.39,0 -13.39,-5.8 -13.39,-15.99l0 -50.14 -29.96 0 0 50.14z"/>
  <path class="fil2" d="M754.47 471.51l-68.89 7.91 43.56 53.96 10.21 -24.94 0 0.03c42.87,-1.22 83.13,14.28 101.13,56.1 18.28,45.21 -0.88,95.16 -47.37,112.7 -13.46,4.95 -26.86,6.72 -41.16,6.62l-280.89 -0.18 -5.17 12.33 285.98 0.03c145.51,0.84 143.93,-199.55 -7.54,-199.79l10.14 -24.77z"/>
  <path class="fil3" d="M194.47 646.09l0 -135.84 -29.97 0 0 135.84 29.97 0zm92.89 -43.95c0,11.59 -8.99,21.98 -20.98,21.98 -11.98,0 -20.97,-10.39 -20.97,-21.98 0,-11.58 8.99,-21.97 20.97,-21.97 11.99,0 20.98,10.39 20.98,21.97zm29.96 -105.87l-29.96 0 0 72.51c-7.79,-9.59 -18.98,-12.78 -30.17,-12.78 -24.97,0 -43.75,21.77 -43.75,46.14 0,24.38 18.78,45.95 43.75,45.95 11.19,0 24.17,-3.6 30.17,-12.58l0 10.58 29.96 0 0 -149.82zm51.14 95.29c0,0 1,-16.39 19.78,-16.39 18.18,0 19.58,16.39 19.58,16.39l-39.36 0zm68.13 8.59c0,-28.17 -22.18,-44.15 -48.95,-44.15 -29.56,0 -51.34,18.58 -51.34,46.14 0,27.97 20.98,45.95 51.34,45.95 23.37,0 42.15,-11.59 47.35,-34.76l-30.57 0c-0.2,6.39 -6.79,13.39 -17.38,13.39 -11.78,0 -18.98,-10.79 -18.98,-20.98l68.32 0c0,-1.8 0.21,-3.8 0.21,-5.59z"/>
  <g id="_1132466842656">
   <path class="fil4" d="M413.68 686.66c0,-6.03 7.96,-5.15 7.96,-0.73 0,2.8 -0.57,5.07 -4.34,5.07 -2.27,0 -3.62,-2.01 -3.62,-4.34zm7.96 -7.24c-2.17,-1.46 -2.44,-2.17 -5.79,-2.17 -11.96,0 -11.26,18.82 -0.72,18.82l0.3 0 0.57 0c2.58,-0.01 3.1,-0.11 5.64,-1.81l0 1.45 6.52 0 0 -30.77c-8.27,0 -6.52,-2.83 -6.52,14.48z"/>
   <path class="fil4" d="M321.74 695.71l7.24 0c0.56,-2.41 2.76,-8.5 2.89,-10.14l0.73 0c0.13,1.67 2.31,7.64 2.89,10.14l7.24 0 3.03 -8.92c0.57,-1.68 0.94,-2.98 1.57,-4.58 0.62,-1.58 1.17,-2.95 1.55,-4.6l-6.87 0 -3.24 10.52c-0.33,0.73 -0.12,0.32 -0.38,0.7 -0.42,-1.78 -1.21,-3.82 -1.76,-5.48 -0.58,-1.76 -1.71,-3.89 -1.86,-5.74l-5.07 0c-0.13,1.55 -1.3,4.43 -1.76,5.84 -0.35,1.02 -0.55,1.61 -0.91,2.71 -0.43,1.36 -0.38,1.99 -1.31,2.67 -0.17,-2.01 -1.03,-3.79 -1.58,-5.66 -0.59,-2.01 -1.26,-3.76 -1.68,-5.56l-6.88 0 6.16 18.1z"/>
   <path class="fil4" d="M448.07 686.66c0,-5.88 8.32,-5.37 8.32,0 0,5.56 -8.32,6.06 -8.32,0zm-6.16 9.05l6.16 0 0 -1.81c2.96,1.98 1.43,2.16 6.62,2.17l0.25 0c4.47,0 7.97,-4.39 7.97,-10.14 0,-4.43 -5.74,-12.61 -14.84,-6.51l0 -14.48 -6.16 0 0 30.77z"/>
   <path class="fil4" d="M284.81 680.87l-2.53 0 0 -7.97c3.87,0 6.52,-0.55 6.52,4.35 0,2.19 -1.45,3.62 -3.99,3.62zm-8.68 14.84l6.15 0 0 -9.78 4.34 0c10.7,0 11.33,-18.1 -0.36,-18.1l-10.13 0 0 27.88z"/>
   <path class="fil4" d="M359.02 681.23c2.15,0 3.45,1.21 3.62,3.25l-7.6 0c0.42,-0.88 0.9,-3.25 3.98,-3.25zm-10.5 4.7c0,6.1 3.65,10.14 8.69,10.14l3.26 0c3.88,0 7.66,-3.58 7.96,-7.24l-6.15 0c-0.25,1.06 -0.34,1.45 -1.21,2.04 -2.66,1.81 -5.16,0.61 -6.03,-3.13l10.88 0.02c2.82,0.05 2.87,0.28 2.87,-2.19 0,-11.38 -20.27,-10.77 -20.27,0.36z"/>
   <path class="fil4" d="M395.22 681.23c2.15,0 3.81,1.21 3.98,3.25l-7.6 0c0.18,-0.78 0.53,-1.73 1.04,-2.22 0.39,-0.38 1.92,-1.03 2.58,-1.03zm-1.45 14.84c5.29,0 9.69,-0.67 11.22,-7.24l-6.51 0c-0.09,1.05 -0.15,1.48 -0.86,2.04 -2.21,1.75 -5.94,0.63 -6.02,-3.13l12.67 0c3.09,0 0.35,-10.49 -8.33,-10.49 -3.11,0 -5.86,0.48 -8.23,2.62 -3.07,2.79 -4.25,9.3 -0.38,13.23 1.01,1.01 1.25,1.38 2.7,2 1.04,0.45 2.46,0.97 3.74,0.97z"/>
   <path class="fil4" d="M301.83 687.02c0,-6.11 7.96,-6.41 7.96,-0.72 0,2.12 -0.2,5.06 -3.62,5.06 -2.75,0 -4.34,-1.72 -4.34,-4.34zm-6.16 -0.72c0,5.65 4.1,9.77 9.41,9.77l0.16 0c3.32,-0.01 5.86,-0.22 8.46,-2.97 1.46,-1.55 2.65,-3.97 2.45,-6.68 -0.67,-9.24 -11.43,-11.72 -17.49,-6.55 -1.39,1.19 -2.99,3.98 -2.99,6.43z"/>
   <path class="fil4" d="M377.84 679.42l0 -1.81 -6.15 0 0 18.1 6.15 0c0,-4.88 -1.27,-13.4 3.62,-13.4 1.36,0 2.11,0.56 2.9,1.09l0 -5.79c-4.18,-0.98 -3.73,-0.06 -6.52,1.81z"/>
  </g>
  <g id="_1132466841936">
   <path class="fil5" d="M569.65 368.27l-70.55 -40.73 -70.54 40.73 70.54 40.73 70.55 -40.73zm0 0z"/>
   <path class="fil6" d="M499.1 490.51l70.57 -40.74 0 -81.51 -70.57 40.74 0 81.51zm0 0z"/>
   <path class="fil7" d="M428.54 368.26l0 81.51 70.56 40.74 0 -81.51 -70.56 -40.74zm0 0z"/>
  </g>
 </g>
</svg>
